<?xml version="1.0" encoding="UTF-8"?>
<!-- Generated by Pixelmator Pro 3.6.15 -->
<svg width="64" height="64" viewBox="0 0 64 64" xmlns="http://www.w3.org/2000/svg">
    <path id="Path" fill="#ffffff" stroke="none" d="M 49.43 16.25 C 49.43 16.25 49.349998 16.25 49.310001 16.25 C 48.810001 11.939999 45.139999 8.580002 40.700001 8.580002 C 39.57 8.580002 38.48 8.790001 37.450001 9.220001 C 35.119999 5.939999 31.4 4.010002 27.35 4.010002 C 20.549999 4.010002 15.01 9.489998 14.92 16.27 C 14.79 16.27 14.67 16.27 14.55 16.27 C 8.74 16.27 4.02 20.989998 4.02 26.799999 C 4.02 32.610001 8.74 37.330002 14.55 37.330002 L 25.51 37.330002 L 25.49 41.990002 L 21.01 41.990002 C 20.209999 41.990002 19.5 42.439999 19.16 43.150002 C 18.809999 43.869999 18.9 44.700001 19.4 45.32 L 30.379999 59.220001 C 30.77 59.720001 31.360001 60 32 60 C 32.639999 60 33.220001 59.709999 33.619999 59.220001 L 44.599998 45.32 C 45.09 44.700001 45.18 43.860001 44.84 43.150002 C 44.490002 42.43 43.779999 41.990002 42.990002 41.990002 L 38.450001 41.93 L 38.450001 37.330002 L 49.450001 37.330002 C 55.259998 37.330002 59.98 32.610001 59.98 26.799999 C 59.98 20.989998 55.259998 16.27 49.450001 16.27 Z M 38.490002 43.98 L 42.970001 43.98 L 43.02 44.080002 L 32.040001 57.98 C 32.040001 57.98 31.98 57.98 31.959999 57.98 L 31.950001 57.98 L 20.969999 44.080002 L 21.02 43.98 L 25.5 43.98 C 26.639999 43.98 27.559999 43.060001 27.559999 41.919998 L 27.620001 25.989998 L 32 25.989998 L 36.439999 26.049999 L 36.439999 36.32 C 36.439999 36.32 36.439999 36.32 36.439999 36.32 C 36.439999 36.32 36.439999 36.32 36.439999 36.32 L 36.439999 41.919998 C 36.439999 43.060001 37.360001 43.98 38.5 43.98 Z M 49.43 35.32 L 38.43 35.32 L 38.43 26.049999 C 38.43 24.91 37.509998 23.989998 36.369999 23.989998 L 27.620001 23.989998 C 26.48 23.989998 25.559999 24.91 25.559999 26.049999 L 25.530001 35.32 L 14.57 35.32 C 9.87 35.32 6.04 31.489998 6.04 26.790001 C 6.04 22.09 9.87 18.260002 14.57 18.260002 C 14.94 18.260002 15.36 18.299999 15.84 18.370003 C 16.139999 18.41 16.440001 18.32 16.67 18.120003 C 16.889999 17.919998 17.01 17.620003 16.99 17.32 L 16.969999 17.09 C 16.950001 16.879997 16.940001 16.669998 16.940001 16.450001 C 16.940001 10.700001 21.620001 6.02 27.370001 6.02 C 31.02 6.02 34.34 7.889999 36.259998 11.029999 C 36.540001 11.48 37.119999 11.639999 37.59 11.389999 C 38.57 10.869999 39.619999 10.599998 40.720001 10.599998 C 44.389999 10.599998 47.380001 13.59 47.380001 17.330002 C 47.380001 17.610001 47.5 17.879997 47.709999 18.07 C 47.919998 18.260002 48.200001 18.349998 48.48 18.330002 C 48.799999 18.299999 49.110001 18.27 49.439999 18.27 C 54.139999 18.27 57.970001 22.099998 57.970001 26.799999 C 57.970001 31.5 54.139999 35.330002 49.439999 35.330002 Z"/>
</svg>
